<!DOCTYPE svg PUBLIC "-//W3C//DTD SVG 1.1//EN" "http://www.w3.org/Graphics/SVG/1.1/DTD/svg11.dtd">
<!-- Uploaded to: SVG Repo, www.svgrepo.com, Transformed by: SVG Repo Mixer Tools -->
<svg width="800px" height="800px" viewBox="0 0 1024 1024" class="icon" version="1.1" xmlns="http://www.w3.org/2000/svg" fill="#000000">
<g id="SVGRepo_bgCarrier" stroke-width="0"/>
<g id="SVGRepo_tracerCarrier" stroke-linecap="round" stroke-linejoin="round"/>
<g id="SVGRepo_iconCarrier">
<path d="M594.2 707.9H425.4c-54.7 0-98.6-45.3-96.7-100l16.2-490.3c1.7-51.8 44.2-92.8 96-92.8h138c51.8 0 94.2 41.1 96 92.8l16.2 490.3c1.6 54.7-42.2 100-96.9 100z" fill="#FFD400"/>
<path d="M594.2 718.9H425.4c-29.5 0-57-11.7-77.5-32.8-20.5-21.2-31.2-49.1-30.3-78.5l16.2-490.3c0.9-27.9 12.5-54 32.5-73.4 20.1-19.4 46.5-30.1 74.4-30.1h138c27.9 0 54.3 10.7 74.4 30.1 20.1 19.4 31.6 45.5 32.5 73.4l16.2 490.3c1 29.5-9.8 57.3-30.3 78.5-20.4 21.2-47.9 32.8-77.3 32.8zM440.8 35.8c-22.2 0-43.2 8.5-59.1 23.9s-25.1 36.1-25.9 58.3l-16.2 490.3c-0.8 23.4 7.8 45.6 24.1 62.5s38.2 26.1 61.7 26.1h168.8c23.5 0 45.4-9.3 61.7-26.1 16.3-16.9 24.9-39.1 24.1-62.5L663.7 118c-0.7-22.2-9.9-42.9-25.9-58.3-15.9-15.4-36.9-23.9-59.1-23.9H440.8z" fill="#e23703"/>
<path d="M509.6 1003.5c-20.7 0-37.6-16.9-37.6-37.6V676c0-20.7 16.9-37.6 37.6-37.6 20.7 0 37.6 16.9 37.6 37.6v289.8c0.1 20.7-16.9 37.7-37.6 37.7z" fill="#E2B97F"/>
<path d="M509.6 1014.5c-26.8 0-48.6-21.8-48.6-48.6V676c0-26.8 21.8-48.6 48.6-48.6s48.6 21.8 48.6 48.6v289.8c0.1 26.8-21.7 48.7-48.6 48.7z m0-365.2c-14.7 0-26.6 12-26.6 26.6v289.8c0 14.7 12 26.6 26.6 26.6 14.7 0 26.6-12 26.6-26.6V676c0.1-14.7-11.9-26.7-26.6-26.7z" fill="#e23703"/>
<path d="M686.5 493.3c0.2-0.9 0.3-1.8 0.5-2.7l-7.5-226c-12.1-21.7-35.3-36.5-61.8-36.5-38.9 0-70.8 31.8-70.8 70.8l-0.7 110c0 32-26.2 58.2-58.2 58.2s-58.2-26.2-58.2-58.2l0.9-71.6c0-33.1-27.1-60.2-60.2-60.2-11.5 0-22.1 3.4-31.2 9L328.7 608c-1.8 54.7 42 100 96.7 100h168.5c54.8 0 98.7-45.5 96.7-100.3l-4.1-114.4z" fill="#f06824"/>
<path d="M593.9 718.9H425.4c-29.5 0-57-11.7-77.5-32.8-20.5-21.2-31.2-49.1-30.3-78.5l10.6-321.9c0.1-3.7 2.1-7.1 5.2-9 11.3-7 24.1-10.6 37-10.6 39.3 0 71.2 32 71.2 71.2v0.1l-0.9 71.6c0 26 21.2 47.2 47.2 47.2 26 0 47.2-21.2 47.2-47.2l0.7-110.1c0-45 36.7-81.7 81.8-81.7 29.6 0 56.9 16.1 71.4 42.1 0.9 1.5 1.3 3.2 1.4 5l7.5 226c0 0.8 0 1.7-0.2 2.5 0 0.2-0.1 0.5-0.1 0.7 0 0.2-0.1 0.5-0.1 0.7l4 113.1c1.1 29.5-9.7 57.5-30.2 78.7-20.3 21.2-47.9 32.9-77.4 32.9zM350.1 292.6l-10.4 315.7c-0.8 23.4 7.8 45.6 24.1 62.5s38.2 26.1 61.7 26.1H594c23.5 0 45.4-9.3 61.7-26.2 16.3-16.9 24.8-39.2 24-62.6l-4.1-114.4c0-1 0.1-2 0.3-2.9 0.1-0.3 0.1-0.5 0.1-0.8v-0.1l-7.3-222.1c-10.9-17.8-30.2-28.8-51-28.8-33 0-59.8 26.8-59.8 59.8l-0.7 110.1c0 38.1-31.1 69.2-69.2 69.2-38.2 0-69.2-31.1-69.2-69.2v-0.1l0.9-71.6c0-27.1-22.1-49.2-49.2-49.2-7.1 0-13.9 1.5-20.4 4.6z" fill="#e23703"/>
</g>
</svg>